<svg xmlns="http://www.w3.org/2000/svg" viewBox="0 0 1200 750" role="img" aria-labelledby="t d">
<title id="t">Network Design and Configuration</title>
<desc id="d">Ilustrasi rangkaian komputer untuk projek Cisco Packet Tracer.</desc>
<defs>
  <linearGradient id="bg" x1="0" y1="0" x2="1" y2="1"><stop stop-color="#081a31"/><stop offset="1" stop-color="#18214d"/></linearGradient>
  <linearGradient id="glow" x1="0" y1="0" x2="1" y2="1"><stop stop-color="#3ac8ff"/><stop offset="1" stop-color="#8f6bff"/></linearGradient>
  <filter id="shadow"><feDropShadow dx="0" dy="16" stdDeviation="18" flood-color="#000" flood-opacity=".30"/></filter>
</defs>
<rect width="1200" height="750" rx="42" fill="url(#bg)"/>
<g opacity=".14" stroke="#fff"><path d="M0 125H1200M0 250H1200M0 375H1200M0 500H1200M0 625H1200"/><path d="M120 0V750M240 0V750M360 0V750M480 0V750M600 0V750M720 0V750M840 0V750M960 0V750M1080 0V750"/></g>
<text x="70" y="82" fill="#fff" font-family="Arial,sans-serif" font-size="28" font-weight="700" letter-spacing="5">NETWORK LAB</text>
<text x="70" y="120" fill="#8fe0ff" font-family="Arial,sans-serif" font-size="18">CISCO PACKET TRACER • SIMULATION</text>
<g stroke="url(#glow)" stroke-width="7" fill="none" stroke-linecap="round" opacity=".9">
 <path d="M600 365 L350 235 M600 365 L850 235 M600 365 L350 520 M600 365 L850 520"/>
</g>
<g fill="#3ac8ff" opacity=".2"><circle cx="600" cy="365" r="92"/><circle cx="350" cy="235" r="58"/><circle cx="850" cy="235" r="58"/><circle cx="350" cy="520" r="58"/><circle cx="850" cy="520" r="58"/></g>
<g filter="url(#shadow)">
 <rect x="505" y="310" width="190" height="110" rx="18" fill="#122a48" stroke="#8f6bff" stroke-width="4"/>
 <rect x="530" y="334" width="140" height="54" rx="9" fill="#071727" stroke="#3ac8ff" stroke-width="3"/>
 <circle cx="550" cy="361" r="7" fill="#3ac8ff"/><circle cx="574" cy="361" r="7" fill="#8f6bff"/><circle cx="598" cy="361" r="7" fill="#3ac8ff"/><circle cx="622" cy="361" r="7" fill="#8f6bff"/>
 <text x="600" y="452" text-anchor="middle" fill="#fff" font-family="Arial,sans-serif" font-size="20" font-weight="700">ROUTER / SWITCH</text>
 <g transform="translate(285 185)"><rect width="130" height="92" rx="14" fill="#112944" stroke="#3ac8ff" stroke-width="3"/><rect x="15" y="15" width="100" height="55" rx="7" fill="#071727"/><circle cx="28" cy="80" r="4" fill="#3ac8ff"/><circle cx="43" cy="80" r="4" fill="#8f6bff"/><text x="65" y="124" text-anchor="middle" fill="#fff" font-family="Arial,sans-serif" font-size="16">PC NODE</text></g>
 <g transform="translate(785 185)"><rect width="130" height="92" rx="14" fill="#112944" stroke="#8f6bff" stroke-width="3"/><rect x="15" y="15" width="100" height="55" rx="7" fill="#071727"/><circle cx="28" cy="80" r="4" fill="#3ac8ff"/><circle cx="43" cy="80" r="4" fill="#8f6bff"/><text x="65" y="124" text-anchor="middle" fill="#fff" font-family="Arial,sans-serif" font-size="16">PC NODE</text></g>
 <g transform="translate(285 475)"><rect width="130" height="92" rx="14" fill="#112944" stroke="#8f6bff" stroke-width="3"/><rect x="15" y="15" width="100" height="55" rx="7" fill="#071727"/><circle cx="28" cy="80" r="4" fill="#3ac8ff"/><circle cx="43" cy="80" r="4" fill="#8f6bff"/><text x="65" y="124" text-anchor="middle" fill="#fff" font-family="Arial,sans-serif" font-size="16">PC NODE</text></g>
 <g transform="translate(785 475)"><rect width="130" height="92" rx="14" fill="#112944" stroke="#3ac8ff" stroke-width="3"/><rect x="15" y="15" width="100" height="55" rx="7" fill="#071727"/><circle cx="28" cy="80" r="4" fill="#3ac8ff"/><circle cx="43" cy="80" r="4" fill="#8f6bff"/><text x="65" y="124" text-anchor="middle" fill="#fff" font-family="Arial,sans-serif" font-size="16">PC NODE</text></g>
</g>
<rect x="70" y="655" width="1060" height="1" fill="#fff" opacity=".15"/>
<text x="70" y="700" fill="#dbefff" font-family="Arial,sans-serif" font-size="17">NETWORK DESIGN • CONFIGURATION • SIMULATION</text>
<text x="1130" y="700" text-anchor="end" fill="#8fe0ff" font-family="Arial,sans-serif" font-size="17" font-weight="700">PROJECT 02</text>
</svg>
